<svg width="35" height="35" viewBox="0 0 35 35" fill="none" xmlns="http://www.w3.org/2000/svg">
<path d="M34.0888 0H0.911546C0.408052 0 0 0.404632 0 0.903907V34.0961C0 34.5954 0.408052 35 0.911546 35H11.9407V34.9921C12.4385 34.9864 12.8199 34.71 12.8374 34.2424C12.8826 33.0271 12.8507 31.8091 12.8507 30.6341C11.9624 30.6752 11.1143 30.7864 10.2759 30.7385C8.42655 30.6329 7.00548 29.8504 6.26848 28.0548C5.8319 26.991 5.17406 26.0811 4.14955 25.4739C3.95823 25.3604 3.79096 25.1933 3.64457 25.0236C3.45325 24.8023 3.48904 24.5749 3.79133 24.5142C4.0963 24.4527 4.42948 24.4097 4.73022 24.4655C5.91138 24.6854 6.72816 25.4199 7.35338 26.397C8.58966 28.3299 10.4926 28.9216 12.6335 28.029C12.7529 27.9792 12.9046 27.8586 12.9271 27.7485C13.0997 26.8928 13.4222 26.1126 14.0721 25.4286C13.3496 25.2959 12.6803 25.1982 12.024 25.0473C10.1339 24.6137 8.43605 23.8335 7.19444 22.284C6.18142 21.02 5.71819 19.5404 5.50525 17.9656C5.17176 15.499 5.47027 13.1901 7.17847 11.219C7.26478 11.1195 7.31157 10.9155 7.27317 10.7914C6.84535 9.40526 6.91072 8.03073 7.33474 6.66001C7.55725 5.94015 7.6192 5.90429 8.36 6.00461C8.4053 6.01064 8.44935 6.02192 8.49428 6.0295C9.97922 6.27313 11.2574 6.98615 12.5164 7.75167C12.6857 7.85463 12.9435 7.91871 13.1295 7.87385C16.1367 7.15023 19.1382 7.15325 22.1451 7.8765C22.3196 7.91834 22.5528 7.85875 22.7197 7.77206C23.4042 7.41721 24.0594 7.0047 24.7527 6.66827C25.5592 6.27726 26.4087 5.9831 27.3233 5.99931C27.4834 6.00233 27.731 6.1539 27.7846 6.2942C28.3348 7.73996 28.4508 9.21326 28.0124 10.7179C27.9656 10.8785 28.0352 11.1074 28.1223 11.2658C28.5551 12.0531 29.1593 12.7798 29.4331 13.615C30.2679 16.1607 29.9636 18.6816 28.8273 21.0742C27.7861 23.2674 25.8551 24.3787 23.5693 24.9519C22.7973 25.1454 22.0063 25.263 21.1735 25.4252C22.2649 26.5557 22.436 27.9354 22.4166 29.3804C22.3965 30.871 22.4018 32.3621 22.401 33.8531C22.4007 34.5752 22.7186 34.9742 23.2734 34.9975C23.273 34.9998 35 34.9998 35 34.9998V0.903907C34.9999 0.404632 34.5919 0 34.0888 0Z" fill="#4E4D4D"/>
</svg>
