<svg width="19" height="19" viewBox="0 0 19 19" fill="none" xmlns="http://www.w3.org/2000/svg">
<path d="M12.1905 6.80953V17.4762H1.52381V6.80953H12.1905ZM12.1905 5.28572H1.52381C0.685714 5.28572 0 5.97144 0 6.80953V17.4762C0 18.3143 0.685714 19 1.52381 19H12.1905C13.0286 19 13.7143 18.3143 13.7143 17.4762V6.80953C13.7143 5.97144 13.0286 5.28572 12.1905 5.28572Z" fill="#4E4D4D"/>
<path d="M16.4999 3C16.4999 2.72386 16.276 2.5 15.9999 2.5L11.4999 2.5C11.2238 2.5 10.9999 2.72386 10.9999 3C10.9999 3.27614 11.2238 3.5 11.4999 3.5L15.4999 3.5L15.4999 7.5C15.4999 7.77614 15.7238 8 15.9999 8C16.276 8 16.4999 7.77614 16.4999 7.5L16.4999 3ZM8.73441 10.9726L16.3535 3.35355L15.6464 2.64645L8.02731 10.2655L8.73441 10.9726Z" fill="#4E4D4D"/>
</svg>
