<svg width="35" height="35" viewBox="0 0 35 35" fill="none" xmlns="http://www.w3.org/2000/svg">
<path d="M33.0747 1.92528C31.7916 0.641839 30.2456 0 28.438 0H6.56255C4.75497 0 3.20901 0.641839 1.92531 1.92528C0.641849 3.20895 0 4.75481 0 6.56245V28.4373C0 30.2448 0.641849 31.7908 1.92531 33.0745C3.20901 34.3582 4.75497 35 6.56255 35H28.4378C30.2454 35 31.7913 34.3582 33.0745 33.0745C34.3582 31.7908 35 30.2449 35 28.4373V6.56245C34.9999 4.75481 34.3581 3.20871 33.0747 1.92528ZM28.665 26.5669C28.346 27.2656 27.6282 27.8735 26.5119 28.3903C25.3953 28.9071 24.4038 29.1654 23.5377 29.1654C23.2946 29.1654 23.0362 29.1467 22.7629 29.1087C22.4895 29.0705 22.2582 29.0327 22.0683 28.9947C21.8785 28.9567 21.6275 28.8885 21.3164 28.7896C21.0047 28.6911 20.7804 28.6149 20.6442 28.5618C20.5071 28.5088 20.2566 28.4139 19.8923 28.2772C19.5276 28.1401 19.2995 28.0565 19.2089 28.0268C16.7176 27.1148 14.2829 25.4706 11.9056 23.0933C9.52829 20.7155 7.88376 18.2814 6.97223 15.7905C6.94206 15.6993 6.85849 15.4713 6.72162 15.1069C6.58498 14.7426 6.48976 14.4917 6.43661 14.3552C6.38377 14.2185 6.30771 13.9944 6.2089 13.6832C6.11017 13.3717 6.04202 13.1212 6.00395 12.9311C5.96579 12.7415 5.92812 12.5099 5.89005 12.2364C5.85206 11.9629 5.83315 11.7043 5.83315 11.4615C5.83315 10.5955 6.0915 9.60436 6.60812 8.4878C7.12467 7.37141 7.7322 6.65367 8.43111 6.33459C9.23626 6.00026 10.0034 5.83313 10.7327 5.83313C10.8995 5.83313 11.0213 5.84846 11.097 5.87879C11.1731 5.90951 11.2984 6.04591 11.4732 6.28901C11.648 6.53212 11.8378 6.83963 12.0428 7.21187C12.248 7.58418 12.4493 7.94501 12.6467 8.29426C12.8442 8.64359 13.0341 8.98901 13.2165 9.33108C13.3988 9.67259 13.5127 9.88936 13.5582 9.98018C13.6037 10.0566 13.7025 10.2006 13.8543 10.4135C14.0061 10.626 14.1204 10.8156 14.1962 10.9829C14.272 11.1501 14.3101 11.3096 14.3101 11.4615C14.3101 11.6897 14.1542 11.9668 13.8428 12.2931C13.5313 12.6198 13.1895 12.9199 12.8173 13.1934C12.445 13.467 12.1033 13.7595 11.7919 14.0709C11.4807 14.3821 11.3249 14.6365 11.3249 14.834C11.3249 14.9404 11.3514 15.0657 11.4047 15.2099C11.4578 15.3546 11.5072 15.4723 11.5528 15.5633C11.5984 15.6543 11.6707 15.7835 11.7693 15.9508C11.868 16.1181 11.9327 16.2243 11.9629 16.27C12.7983 17.7739 13.7593 19.069 14.8452 20.1553C15.9316 21.2417 17.2265 22.2023 18.7306 23.0378C18.7759 23.0684 18.8824 23.1328 19.0502 23.2317C19.2171 23.3301 19.3465 23.4022 19.4375 23.4478C19.5287 23.4934 19.6461 23.5428 19.7907 23.5956C19.9352 23.6486 20.0605 23.6753 20.1673 23.6753C20.4096 23.6753 20.744 23.4249 21.1698 22.9237C21.595 22.422 22.0282 21.9246 22.4688 21.4308C22.909 20.9375 23.2657 20.6906 23.5397 20.6906C23.6915 20.6906 23.8507 20.7284 24.0185 20.8043C24.1857 20.8802 24.3752 20.9944 24.5877 21.1462C24.8007 21.2986 24.945 21.397 25.0209 21.4432L26.2281 22.1033C27.0333 22.5288 27.7055 22.9047 28.2449 23.2313C28.7844 23.558 29.0769 23.782 29.1226 23.9033C29.1528 23.9792 29.1676 24.101 29.1676 24.2682C29.167 24.9967 28.9998 25.7639 28.665 26.5669Z" fill="#4E4D4D"/>
</svg>
